<?xml version="1.0" encoding="UTF-8"?>
<svg id="Layer_2" data-name="Layer 2" xmlns="http://www.w3.org/2000/svg" viewBox="0 0 554.62 814.16">
  <defs>
    <style>
      .cls-1 {
        fill: #e84855;
      }
    </style>
  </defs>
  <g id="Layer_2-2" data-name="Layer 2">
    <path class="cls-1" d="M539.2,0H15.42C6.9,0,0,6.9,0,15.42v783.31c0,8.52,6.9,15.42,15.42,15.42h523.78c8.52,0,15.42-6.9,15.42-15.42V15.42c0-8.52-6.9-15.42-15.42-15.42ZM277.31,789.96c-22.41,0-40.57-18.16-40.57-40.57s18.16-40.57,40.57-40.57,40.57,18.16,40.57,40.57-18.16,40.57-40.57,40.57ZM505.71,653.54c0,8.52-6.9,15.42-15.42,15.42H64.34c-8.52,0-15.42-6.9-15.42-15.42V72.58c0-8.52,6.9-15.42,15.42-15.42h425.95c8.52,0,15.42,6.9,15.42,15.42v580.95Z"/>
  </g>
</svg>